<?xml version="1.0" standalone="no"?><!DOCTYPE svg PUBLIC "-//W3C//DTD SVG 1.1//EN" "http://www.w3.org/Graphics/SVG/1.1/DTD/svg11.dtd"><svg t="1746461605235" class="icon" viewBox="0 0 1024 1024" version="1.1" xmlns="http://www.w3.org/2000/svg" p-id="6192" xmlns:xlink="http://www.w3.org/1999/xlink" width="256" height="256"><path d="M511.654442 955.724413l-382.972425-222.547256L127.316696 290.813286l382.972426 222.547256 1.36532 442.363871z" p-id="6193"></path><path d="M511.654442 1023.990443a64.170068 64.170068 0 0 1-34.815675-9.557244l-382.289765-221.864596a68.26603 68.26603 0 0 1-34.133015-59.391446L59.050667 290.813286a68.26603 68.26603 0 0 1 34.133014-59.391446 68.26603 68.26603 0 0 1 68.26603 0l382.972426 222.547256a68.26603 68.26603 0 0 1 34.133014 58.708786V955.724413a68.26603 68.26603 0 0 1-68.266029 68.26603zM195.582726 694.26552l245.757706 142.676002V552.272179L195.582726 409.596177z" p-id="6194"></path><path d="M510.289122 581.626571a68.26603 68.26603 0 0 1-34.815675-9.557244L93.183681 349.522071a68.26603 68.26603 0 0 1 0-118.100231L478.204088 8.874584a68.26603 68.26603 0 0 1 68.266029 0l382.289766 221.864596a68.26603 68.26603 0 0 1 34.133014 59.391445 68.26603 68.26603 0 0 1-34.133014 58.708786L544.422137 572.069327a68.26603 68.26603 0 0 1-34.133015 9.557244zM263.848755 290.813286l246.440367 143.358662 248.488347-143.358662-246.440366-143.358662z" p-id="6195"></path><path d="M511.654442 1023.990443a68.26603 68.26603 0 0 1-34.133014-8.874584 68.26603 68.26603 0 0 1-34.133015-59.391446V513.360542a68.26603 68.26603 0 0 1 34.133015-59.391446l385.020406-222.547256a68.26603 68.26603 0 0 1 68.26603 0 68.26603 68.26603 0 0 1 34.133014 59.391446v442.363871a68.26603 68.26603 0 0 1-34.133014 59.391446l-385.020407 222.547256a68.26603 68.26603 0 0 1-34.133015 8.874584z m68.26603-471.718264v285.352003l249.171008-143.358662V408.913517z" p-id="6196"></path></svg>